<svg version="1.1" viewBox="0 0 1024 1024" width="100" height="100" xmlns="http://www.w3.org/2000/svg">
<path transform="translate(0)" d="m0 0h1024v1024h-1024z" fill="none"/>
<path transform="translate(569,343)" d="m0 0h124l4 3 1 6-5 5-96 1-1 5 3 2 94 1 4 3v5l-3 3-98 1 1 7 3 1 95 1 2 2v6l-4 2-95 1-2 5 3 3 94 1 5 5-1 6-4 3h-125l-10-4-11-6-6-1h-16l-11 2-14 8-3 1h-162l-9-3-9-6-6-9-2-6v-14l4-9 7-8 10-5 4-1 206-1 8-4 10-8z" fill="#1A323C"/>
<path transform="translate(341,445)" d="m0 0h19l14 3 10 6 8 9 9 20 18 46 14 35v-109l-2-6-2-4h33l-3 6v174l2 5 2 3h-37l-7-15-15-36-12-28-11-26-7-15v113l3 5 1 2h-35l1-2h2l1-4 1-124 2-9 1-2-9-6-3-4-1-5 6-1h16l14 5 3 1-20-15-10-9-6-10z" fill="#1A323C"/>
<path transform="translate(290,440)" d="m0 0h9l9 3 6 4 4 6 2 11 3 90 3 66-1 9-10 5-15 6-2 1-2-75h-36l-2 14-13 69-4 7-11 11-7 5h-3l-1-5v-22l3-24 10-51 1-6-1-3 3-6 11-53 4-9 7-8 12-9 19-10-45-1 5-5 11-7 17-9 9-3z" fill="#1A323C"/>
<path transform="translate(748,442)" d="m0 0h8l8 3 7 6 5 9 9 46 17 96 7 46 1 12v13l-4-1-9-7-10-9-4-7-10-54-3-17-39-1v7l-6 32v13l3 4h-37l3-3 5-23 10-51 8-40 5-15 9-13 11-12 4-4-23-1-2-1-1-11 14-9 8-6z" fill="#1A323C"/>
<path transform="translate(580,445)" d="m0 0h35v2l-3 2-1 3-1 66h2l2-5 26-44 8-14 1-7-1-3h36l-3 5-19 29-13 21-11 17-1 5 15 39 20 51 7 16 4 5h-35l-1-9-11-28-16-43-8-20-1 6v85l2 6 3 3h-37l4-4 1-3v-175l-4-4z" fill="#1A323C"/>
<path transform="translate(461,220)" d="m0 0 8 1 14 7 10 8 9 11 6 12 3 13v15l-3 12-5 10-9 11-10 8-14 7-6 2-7 1h-16l-11-3-11-6-7-6-7-11-3-10v-15l4-11 6-8 8-7 10-4h15l9 4 7 6 2 7-3 4-4 1-8-6-7-2-10 1-8 4-6 9-2 9 2 10 6 9 9 6 5 2h17l9-4 8-6 6-9 3-9 1-5v-9l-3-12-6-11-7-7-10-6-10-3h-20l-10 3-9 6-6 5-9 14-3 9-1 5v22l4 14 7 12 8 8 12 7 13 4-1 2h-26l-14-3-11-6-10-9-6-9-4-9-2-11v-14l3-14 5-12 9-13 8-9 14-10 10-5 15-4h21l13 4 10 5 13 12 7 9 5 10 3 12v16l-2 9 3-1 3-6 2-11-2-17-5-12-6-9-6-7-10-8-9-6z" fill="#1A323C"/>
<path transform="translate(568,223)" d="m0 0h20l12 4 9 6 9 9 6 10 3 12 1 1 2-9v-14l-4-12-1-5 5-1 9 6 4 6 2 7v16l-4 14-8 15-10 13-9 9-11 7-10 4-5 1h-17l-13-4-11-7-5-4-9-13-4-10-1-6v-13l3-11 7-12 6-7 10-7z" fill="#1A323C"/>
<path transform="translate(319,656)" d="m0 0h202l1 19 13 1v8l-13 1-1 8-1 1h-104l-26-1-28-3-20-4-24-7-17-7-5-4v-5l7-4z" fill="#1A323C"/>
<path transform="translate(192,652)" d="m0 0h9l3 3 1 3 1 142 4 8 8 7 9 3 272 1 6 5-1 7-3 3h-277l-10-3-10-6-5-5-5-6-4-8-1-4v-146z" fill="#1A323C"/>
<path transform="translate(829,661)" d="m0 0 7 1 3 3v137l-5 12-7 8-9 7-10 4-5 1h-280l-3-4v-6l5-5 274-1 8-2 9-6 5-7 2-9v-124l2-6z" fill="#1A323C"/>
<path transform="translate(561,711)" d="m0 0h7l-1 3-16 8-9 7-10 10-7 12-1 7 6 1 2-6 7-11 10-10 10-6 9-4 12-2h11l14 3 14 7 10 9 6 9 4 10 1 5v10l-3 10-6 9-8 7-10 4-5 1h-8l-10-3-9-6-4-5-3-6-1-9 3-9 5-6 9-4h8l7 4 2 4-1 7-5 1-6-1-3 3 1 7 4 4 3 1h8l8-4 4-5 2-8-1-9-5-9-8-7-8-4-9-2h-13l-12 3-11 7-6 7-3 7v13l3 6 7 6 8 4-1 4-8 5-9 2h-62l2-5 8-14 10-20 10-16 10-13 11-11 13-8z" fill="#1A323C"/>
<path transform="translate(547,655)" d="m0 0h7l6 6 171 1 6 4 3 5 1 9-3 7-6 5-9 2h-165l-5 3h-5l-2-3v-38z" fill="#1A323C"/>
<path transform="translate(524,192)" d="m0 0h283l11 4 9 7 6 7 4 8 2 7v69l-4 4h-7l-4-4-1-64-3-10-8-9-7-3-279-1-5-4-1-6z" fill="#1A323C"/>
<path transform="translate(732,219)" d="m0 0h20l15 3 14 7 10 9 7 9 5 12 1 4v20l-3 10-7 10-9 8-6 2-9-1-5-4-1-5 11-9 6-12 1-6v-12l-3-10-6-8-7-6-11-4h-16l-11 4-9 7-7 9-4 10-7 3-12 6-14 12-14 15-10 10-12 9-10 5-8 2h-9l4-4 8-5 10-9 9-10 12-19 10-20 9-14 9-10 8-7 12-6 12-3z" fill="#1A323C"/>
<path transform="translate(494,191)" d="m0 0 7 1 3 4v6l-4 4-2 1-274 1-9 4-7 8-2 5-1 7-1 36-5 5-7-1-3-3v-45l4-10 7-10 7-6 11-5 3-1z" fill="#1A323C"/>
<path transform="translate(279,694)" d="m0 0h12l16 4 10 6 9 8 7 11 4 10 1 6v15l-3 12-7 13-10 11-13 8-11 4-4 1h-21l-13-4-11-7-5-4-8-10-4-9-1 8 2 9 7 11 3 3-2 4-5-1-8-7-5-10-1-10 3-13 2-4v-19l3-9 3-2 3 4 4 8 8 4 3 1v10l4 12 6 8 5 4 8 4 8 2h8l10-2 8-4 7-6 6-10 2-10v-8l-3-12-6-9-9-8-10-4-10-1-11 2-10 5-5 5-7 6-5-2-2-2v-7l4-7 10-9 14-7z" fill="#1A323C"/>
<path transform="translate(564,361)" d="m0 0 5 1 1 6-6 3-5 7-5 2-6 1-1 3v14l-1 1h-31l-13-5-8-3h-134l-7 3-5 8-4 4-8 1-7-3-5-5-2-5v-8l4-8 8-5 216-1 5-5 6-5z" fill="#E2E7EA"/>
<path transform="translate(532,445)" d="m0 0h32l-1 3-3 3v175l1 4 4 2v1h-36l4-6 1-19v-143l-1-15-4-4z" fill="#1A323C"/>
<path transform="translate(478,445)" d="m0 0h35l-1 3-2 1-1 4v171l2 5 3 4h-36l4-5 1-3v-173l-1-3-4-2z" fill="#1A323C"/>
<path transform="translate(420,710)" d="m0 0h20l16 4 13 8 7 7 7 12 2 7 1 9-2 14-6 11-6 7-9 6-10 4h-14l-9-4-6-4-5-8-1-9 5-5 5 1 7 8 6 3h11l8-4 5-5 4-8 1-10-2-9-6-10-8-6-10-4-7-1h-9l-15 4-11 6-10 8-13 12-9 10-11 13-9 11-14 14-3 2-5-1v-4l12-15 12-19 10-15 12-14 5-5 9-8 14-8 13-4z" fill="#1A323C"/>
<path transform="translate(766,718)" d="m0 0h10l11 3 9 5 9 10 5 12 1 5v18l-4 13-7 10-8 8-14 7-9 2h-9l-10-2-14-7-2-2v-3l10 3 11 2h8l12-3 9-5 5-5 6-7 3-9v-14l-4-9-7-8-7-4-12-2-11 2-9 6-4 5-2 5v10l4 7 3 2h8l2-2v-6l-3-3v-6l3-3 8-1 6 4 4 6v11l-6 9-10 5-4 1h-10l-10-4-7-6-5-9-1-4v-11l3-10 8-11 10-8 11-5z" fill="#1A323C"/>
<path transform="translate(570,239)" d="m0 0h16l9 3 10 8 6 10 2 8v9l-3 10-6 8-8 7-8 3-10 1-12-3-8-5-7-7-5-10-1-13 3-10 5-8 9-8z" fill="#E2E7EA"/>
<path transform="translate(193,286)" d="m0 0h7l4 4 1 5v133l-1 25-5 5-7-1-3-3v-164z" fill="#1A323C"/>
<path transform="translate(286,223)" d="m0 0 10 1 13 5 11 8 7 7 8 14 3 10 1 14-3 16-6 12-11 12-8 5-3 1h-9l-4-4v-8l14-9 6-8 4-11v-17l-5-12-7-8-10-6-10-3-5-5-1-2v-9z" fill="#1A323C"/>
<path transform="translate(220,315)" d="m0 0h2l8 13 10 10 12 7 16 4h15l15-3 19-9 3 1-4 6-11 9-10 7-15 5-10 1-14-2-7-2v7l4 7 6 7v6l-5 5h-7l-6-4-5-6-3-11h-6l-3-3v-6l3-2h3l-8-16-3-12v-18z" fill="#1A323C"/>
<path transform="translate(797,323)" d="m0 0 4 2 1 2v17l-5 15-8 11-10 9 1 4 3 2 8-1 7-4 7-8 1-2h2l1 14v12l-1 16-5-5-1-3-10-5-16-1-16-5-10-7-6-7-2-8 5-1 2 1h12l10-4 6-5 6-9 2-5-1-5-3-3-5-3v-4l16-8z" fill="#1A323C"/>
<path transform="translate(704,283)" d="m0 0h8l4 5 3 15 5 3v7l3 7 7 8 9 7 9 3 14 1 3 3v6l-3 3-3 1h-17l-12-4-13-9-14-12-11-7-10-3-9 3-7 1-2-1 1-5 11-9 8-7 14-14z" fill="#1A323C"/>
<path transform="translate(829,312)" d="m0 0 7 1 3 4v137l-4 4h-6l-5-5v-137z" fill="#1A323C"/>
<path transform="translate(434,735)" d="m0 0 11 2 8 6 4 8-1 8-4 5-7 2-6-3-2-3v-10l-11 2-6 3-6 5-6 10-2 7v10l4 10 2 4-1 1h-17l-6-4-3-6v-10l4-11 7-11 11-12 11-9 8-3z" fill="#1A323C"/>
<path transform="translate(608,709)" d="m0 0h11l16 5 12 7 10 9 8 9 7 12 4 14 1 12-2 11-6 10-4 3-3 1h-18v-3l7-10 3-9 1-5v-15l-3-12-6-11-9-10-8-6-12-7-9-4z" fill="#1A323C"/>
<path transform="translate(253,247)" d="m0 0v3l-7 10-3 11v14l4 10 6 9 9 8 18 7 2 3v7l-5 4h-8l-13-4-12-7-7-7-7-11-4-9-1-5v-15l4-11 9-10 8-5z" fill="#1A323C"/>
<path transform="translate(275,257)" d="m0 0h12l8 4 7 8 2 6v9l-5 10-8 6-6 2-10-1-7-4-6-7-3-8v-7l3-8 5-6z" fill="#1A323C"/>
<path transform="translate(278,729)" d="m0 0h10l8 4 6 8 1 3v11l-5 8-6 5-7 2-8-1-6-3-7-8-1-3v-11l4-8 6-5z" fill="#1A323C"/>
<path transform="translate(754,488)" d="m0 0 2 1 11 63v4h-31l1-11 8-39 5-12z" fill="#E2E7EA"/>
<path transform="translate(292,483)" d="m0 0h1l2 42v15h-29l1-12 5-23 5-10 7-7z" fill="#E2E7EA"/>
<path transform="translate(667,710)" d="m0 0 8 1 14 8 9 5 16 8-1 6-7-1-9-5 7 15 6 21 6 12 2 3-1 4-6-2-8-7-6-10-5-11-6-16-9-15-12-12z" fill="#1A323C"/>
<path transform="translate(238,406)" d="m0 0h5l-1 4-7 9-3 8 1 4 9-12 8-5 3-1h8l6 4 1 5-14 7-11 10-11 9-9 6h-2l-1-3v-19l4-13 6-8 5-4z" fill="#1A323C"/>
<path transform="translate(742,621)" d="m0 0h2l9 17 12 17 12 14 8 8 13 10 10 6 2 2-1 8-1 1h-6l-10-6-13-10-9-9-11-14-8-14-6-14-3-10z" fill="#1A323C"/>
<path transform="translate(576,254)" d="m0 0 9 1 5 3 5 6 2 9-2 7-6 7-8 3-10-2-5-4-4-7v-11l5-8 5-3z" fill="#1A323C"/>
<path transform="translate(281,629)" d="m0 0h2l-1 9-7 17-6 10-9 12-15 15-14 10-9 3-4-4v-5l6-5 11-7 12-10 2-3h2l2-4 9-10 12-17z" fill="#1A323C"/>
<path transform="translate(742,251)" d="m0 0h10l8 4 5 6 2 5v8l-3 5-3 2-7-1-3-7-1-3h-7l-3 3-3 6-1 1h-6l-4-4-1-7 3-9 8-7z" fill="#1A323C"/>
<path transform="translate(772,411)" d="m0 0h11l9 3 10 9 5 9 1 4v14l-2 1-9-7-10-9-7-6-10-5-10-2 2-5 5-4z" fill="#1A323C"/>
<path transform="translate(374,402)" d="m0 0h89l4 3-1 4-3 2h-88l-4-4 1-4z" fill="#E2E7EA"/>
<path transform="translate(828,597)" d="m0 0h7l4 4v42l-4 4h-7l-4-5v-41z" fill="#1A323C"/>
<path transform="translate(837,512)" d="m0 0h9l7 6 1 2v10l-6 7-9 2-7-3-4-5-1-9 4-7z" fill="#1A323C"/>
<path transform="translate(184,512)" d="m0 0h9l5 3 4 8-2 9-5 5-8 2-8-3-4-6-1-6 3-7 5-4z" fill="#1A323C"/>
<path transform="translate(251,223)" d="m0 0h10l4 3-1 6-4 2-16 3-11 6-8 9-3 5h-3v-8l6-12 8-7 8-4z" fill="#1A323C"/>
<path transform="translate(523,311)" d="m0 0 5 2 1 5-6 9 12 2 2 1-2 4-8 5-3 1h-7l-13-5-4-3 11-8 8-8z" fill="#1A323C"/>
<path transform="translate(680,536)" d="m0 0 6 1 4 2 3 5v8l-4 6-4 2h-8l-6-5-2-5 1-7 4-5z" fill="#1A323C"/>
<path transform="translate(684,484)" d="m0 0h8l6 4 2 5-1 8-5 5-3 1h-7l-7-6-1-8 3-6z" fill="#1A323C"/>
<path transform="translate(732,399)" d="m0 0 9 1 4 4 1 3v7l-4 6-3 2h-9l-5-4-2-4v-7l3-5z" fill="#1A323C"/>
<path transform="translate(718,228)" d="m0 0h8l3 3-19 10-14 9-14 14-4 2 2-6 6-11 11-11 7-5 10-4z" fill="#E2E7EA"/>
<path transform="translate(275,585)" d="m0 0 6 1 2 3-1 8-5 14-6 12-5 4-4-4 3-10 5-16 3-10z" fill="#1A323C"/>
<path transform="translate(349,711)" d="m0 0h14l9 1-1 4-8 8-8 13-4 2 1-14-2-4-5-5 2-4z" fill="#1A323C"/>
<path transform="translate(748,594)" d="m0 0h5l4 6 5 14 4 10-1 5-4 1-8-11-7-15-1-6z" fill="#1A323C"/>
<path transform="translate(274,382)" d="m0 0 4 2 8 8 3 6-2 6-7 8-5-1-3-5v-13z" fill="#1A323C"/>
<path transform="translate(439,282)" d="m0 0h8l5 4 1 2-1 9-5 4h-7l-4-2-3-6 1-7z" fill="#1A323C"/>
<path transform="translate(376,268)" d="m0 0 4 1-4 17v19l2 9v4l-4-1-4-7-2-9v-10l2-10 5-12z" fill="#E2E7EA"/>
<path transform="translate(829,560)" d="m0 0h7l4 4 1 7-3 5-5 2-5-1-4-4v-9z" fill="#1A323C"/>
<path transform="translate(351,227)" d="m0 0h11l5 3 1 2-4 6-5 3h-7l-5-3-2-3 1-5z" fill="#1A323C"/>
<path transform="translate(510,777)" d="m0 0h19l4 8-1 3-2 1h-14l-5-4-1-2z" fill="#E2E7EA"/>
<path transform="translate(710,711)" d="m0 0h11l4 3v6l-4 4-9-1-9-6-3-3v-2z" fill="#1A323C"/>
<path transform="translate(194,560)" d="m0 0 7 1 3 3 1 7-5 6h-7l-5-5v-7l3-4z" fill="#1A323C"/>
<path transform="translate(795,222)" d="m0 0 6 3 5 6 3 6 1 10-2 4-3-3-6-12-7-9 1-4z" fill="#1A323C"/>
<path transform="translate(804,476)" d="m0 0h8l3 3 1 5-3 6-7 2-5-3-1-1v-9z" fill="#1A323C"/>
<path transform="translate(218,476)" d="m0 0h7l4 5-1 7-3 3-5 1-5-3-2-3 1-7z" fill="#1A323C"/>
<path transform="translate(832,476)" d="m0 0h7l4 4v7l-4 4-5 1-5-3-1-2v-7z" fill="#1A323C"/>
<path transform="translate(190,476)" d="m0 0h7l4 4v6l-4 5h-7l-4-3v-8z" fill="#1A323C"/>
<path transform="translate(719,362)" d="m0 0 7 1 3 4-1 7-3 3h-7l-4-3-1-6 3-5z" fill="#1A323C"/>
<path transform="translate(192,624)" d="m0 0h8l3 3 1 7-3 4-7 1-5-4v-8z" fill="#1A323C"/>
<path transform="translate(195,596)" d="m0 0 5 1 4 4v6l-4 4h-7l-4-4v-7l3-3z" fill="#1A323C"/>
<path transform="translate(279,272)" d="m0 0 6 2 3 4-2 7-3 2h-6l-4-4v-7l3-3z" fill="#E2E7EA"/>
<path transform="translate(394,615)" d="m0 0 6 1 3 4-1 7-4 3h-5l-4-5 1-7z" fill="#1A323C"/>
<path transform="translate(568,670)" d="m0 0h7l4 5-1 6-4 3-7-1-2-3v-7z" fill="#E2E7EA"/>
<path transform="translate(493,537)" d="m0 0h6l4 4-1 7-5 3-6-2-2-3 1-7z" fill="#E2E7EA"/>
<path transform="translate(651,670)" d="m0 0h5l4 4v6l-4 4h-5l-4-4-1-5z" fill="#E2E7EA"/>
<path transform="translate(487,706)" d="m0 0h6l4 4-1 7-2 2h-7l-4-5 1-5z" fill="#1A323C"/>
<path transform="translate(514,224)" d="m0 0 7 1 3 5-2 6-3 2-6-1-3-5 1-5z" fill="#1A323C"/>
<path transform="translate(746,313)" d="m0 0 7 1 6 4 2 2-1 5-7 1-8-7-2-4z" fill="#1A323C"/>
<path transform="translate(545,537)" d="m0 0 6 1 3 5-2 6-1 1h-8l-3-3v-6z" fill="#E2E7EA"/>
<path transform="translate(358,554)" d="m0 0h6l3 3v7l-4 3h-6l-3-3v-6z" fill="#E2E7EA"/>
<path transform="translate(741,286)" d="m0 0h7l3 3v6l-3 3-4 1-5-3-1-7z" fill="#1A323C"/>
<path transform="translate(715,577)" d="m0 0 6 2 2 5-2 5-2 1h-6l-3-3v-6l2-3z" fill="#E2E7EA"/>
<path transform="translate(280,747)" d="m0 0 6 1 2 3v5l-5 4-5-2-2-2 1-7z" fill="#E2E7EA"/>
<path transform="translate(364,791)" d="m0 0 6 1 2 2v6l-4 3-5-1-3-5 2-5z" fill="#1A323C"/>
<path transform="translate(658,225)" d="m0 0h5l3 3v6l-3 3-6-1-2-2v-6z" fill="#1A323C"/>
<path transform="translate(693,791)" d="m0 0 6 1 2 3-1 5-5 3-5-3-1-5z" fill="#1A323C"/>
<path transform="translate(324,225)" d="m0 0h6l3 3v5l-3 3h-5l-4-5 2-5z" fill="#1A323C"/>
<path transform="translate(340,328)" d="m0 0h7l2 3v5l-4 3-5-1-2-2v-6z" fill="#1A323C"/>
<path transform="translate(758,693)" d="m0 0 5 1 3 4v4l-13 1-1-2 2-5z" fill="#1A323C"/>
<path transform="translate(483,401)" d="m0 0 5 1 2 2v5l-4 3-5-1-3-3 1-5z" fill="#E2E7EA"/>
<path transform="translate(221,389)" d="m0 0 5 1 2 2v5l-3 3h-5l-3-5 2-5z" fill="#1A323C"/>
<path transform="translate(508,722)" d="m0 0 5 1 2 2v5l-3 3-6-1-1-1v-6z" fill="#1A323C"/>
<path transform="translate(696,303)" d="m0 0 5 2 5 4-2 4-6-2-2-3z" fill="#E2E7EA"/>
<path transform="translate(576,270)" d="m0 0h5l1 5-1 1h-5l-1-4z" fill="#E2E7EA"/>
</svg>




